<?xml version="1.0" encoding="UTF-8"?>
<!DOCTYPE svg PUBLIC "-//W3C//DTD SVG 1.1//EN" "http://www.w3.org/Graphics/SVG/1.1/DTD/svg11.dtd">
<svg xmlns="http://www.w3.org/2000/svg" version="1.1" width="1399px" height="1405px" style="shape-rendering:geometricPrecision; text-rendering:geometricPrecision; image-rendering:optimizeQuality; fill-rule:evenodd; clip-rule:evenodd" xmlns:xlink="http://www.w3.org/1999/xlink">
<g><path style="opacity:0.731" fill="#2a466a" d="M 772.5,97.5 C 771.666,98.7479 770.333,99.4146 768.5,99.5C 697.034,91.6802 626.367,96.0135 556.5,112.5C 555.287,112.253 554.62,111.586 554.5,110.5C 626.386,93.3038 699.053,88.9705 772.5,97.5 Z"/></g>
<g><path style="opacity:0.999" fill="#0f1d40" d="M 772.5,97.5 C 943.619,121.613 1081.45,201.946 1186,338.5C 1292.4,488.148 1327.4,653.481 1291,834.5C 1247.78,1013.86 1145.94,1148.69 985.5,1239C 823.712,1322.29 657.045,1333.29 485.5,1272C 329.646,1210.15 216.479,1102.98 146,950.5C 83.306,804.5 76.6393,655.833 126,504.5C 135.303,476.717 146.803,450.051 160.5,424.5C 160.435,424.938 160.601,425.272 161,425.5C 162,424.833 163,424.167 164,423.5C 167.454,412.582 172.954,402.915 180.5,394.5C 180.912,390.911 182.245,387.744 184.5,385C 183.906,384.536 183.239,384.369 182.5,384.5C 184.265,381.291 186.265,378.291 188.5,375.5C 190.193,374.525 191.693,373.192 193,371.5C 249.361,286.144 322.195,218.311 411.5,168C 424.666,161.49 438,155.157 451.5,149C 452.252,148.329 452.586,147.496 452.5,146.5C 453.29,145.599 454.29,144.932 455.5,144.5C 455.843,146.225 456.843,146.725 458.5,146C 463.26,143.295 468.26,140.962 473.5,139C 495.829,130.668 518.329,123.168 541,116.5C 542.03,116.164 542.53,115.497 542.5,114.5C 546.416,113.181 550.416,111.848 554.5,110.5C 554.62,111.586 555.287,112.253 556.5,112.5C 626.367,96.0135 697.034,91.6802 768.5,99.5C 770.333,99.4146 771.666,98.7479 772.5,97.5 Z"/></g>
<g><path style="opacity:0.506" fill="#35597f" d="M 542.5,114.5 C 542.53,115.497 542.03,116.164 541,116.5C 518.329,123.168 495.829,130.668 473.5,139C 468.26,140.962 463.26,143.295 458.5,146C 456.843,146.725 455.843,146.225 455.5,144.5C 483.647,132.117 512.647,122.117 542.5,114.5 Z"/></g>
<g><path style="opacity:0.133" fill="#2e547a" d="M 452.5,146.5 C 452.586,147.496 452.252,148.329 451.5,149C 438,155.157 424.666,161.49 411.5,168C 322.195,218.311 249.361,286.144 193,371.5C 191.693,373.192 190.193,374.525 188.5,375.5C 253.542,272.798 341.542,196.464 452.5,146.5 Z"/></g>
<g><path style="opacity:1" fill="#fed033" d="M 658.5,377.5 C 657.645,394.35 656.312,411.017 654.5,427.5C 653.515,431.634 653.182,435.968 653.5,440.5C 671.008,440.83 688.341,440.497 705.5,439.5C 705.5,401.5 705.5,363.5 705.5,325.5C 722.167,325.5 738.833,325.5 755.5,325.5C 755.5,341.833 755.5,358.167 755.5,374.5C 753.557,396.812 751.891,419.146 750.5,441.5C 792.277,444.587 829.943,458.421 863.5,483C 878.001,495.204 888.668,510.038 895.5,527.5C 897.787,535.362 900.453,543.029 903.5,550.5C 904.071,558.416 905.404,566.082 907.5,573.5C 910.29,592.21 909.957,610.876 906.5,629.5C 904.32,632.381 903.32,635.714 903.5,639.5C 893.279,668.896 875.279,692.396 849.5,710C 840.068,715.768 830.401,721.101 820.5,726C 873.326,741.659 906.659,776.159 920.5,829.5C 920.911,837.115 922.245,844.449 924.5,851.5C 925.818,861.931 925.818,872.265 924.5,882.5C 923.304,888.97 922.638,895.637 922.5,902.5C 915.634,955.42 888.634,994.253 841.5,1019C 814.075,1032.61 785.075,1040.44 754.5,1042.5C 754.5,1045.5 754.5,1048.5 754.5,1051.5C 752.46,1064.28 751.126,1077.28 750.5,1090.5C 750.5,1091.83 750.5,1093.17 750.5,1094.5C 748.348,1113.31 746.682,1132.31 745.5,1151.5C 744.539,1153.26 744.205,1155.26 744.5,1157.5C 731.833,1157.5 719.167,1157.5 706.5,1157.5C 706.832,1119.66 706.498,1082 705.5,1044.5C 689.833,1044.5 674.167,1044.5 658.5,1044.5C 655.512,1070.29 653.179,1096.29 651.5,1122.5C 651.5,1123.83 651.5,1125.17 651.5,1126.5C 650.402,1132.98 649.735,1139.65 649.5,1146.5C 648.518,1149.96 648.185,1153.63 648.5,1157.5C 635.833,1157.5 623.167,1157.5 610.5,1157.5C 610.5,1119.5 610.5,1081.5 610.5,1043.5C 578.5,1043.5 546.5,1043.5 514.5,1043.5C 514.5,842.5 514.5,641.5 514.5,440.5C 546.338,440.832 578.004,440.498 609.5,439.5C 609.5,401.5 609.5,363.5 609.5,325.5C 625.833,325.5 642.167,325.5 658.5,325.5C 658.5,342.833 658.5,360.167 658.5,377.5 Z"/></g>
<g><path style="opacity:1" fill="#89783a" d="M 705.5,325.5 C 722.325,324.503 739.325,324.17 756.5,324.5C 756.83,341.342 756.497,358.008 755.5,374.5C 755.5,358.167 755.5,341.833 755.5,325.5C 738.833,325.5 722.167,325.5 705.5,325.5 Z"/></g>
<g><path style="opacity:1" fill="#a68e38" d="M 658.5,377.5 C 658.5,360.167 658.5,342.833 658.5,325.5C 642.167,325.5 625.833,325.5 609.5,325.5C 609.5,363.5 609.5,401.5 609.5,439.5C 609.167,439.5 608.833,439.5 608.5,439.5C 608.5,401.167 608.5,362.833 608.5,324.5C 625.5,324.5 642.5,324.5 659.5,324.5C 659.83,342.341 659.497,360.008 658.5,377.5 Z"/></g>
<g><path style="opacity:0.404" fill="#1f3f66" d="M 182.5,384.5 C 183.239,384.369 183.906,384.536 184.5,385C 182.245,387.744 180.912,390.911 180.5,394.5C 172.954,402.915 167.454,412.582 164,423.5C 163,424.167 162,424.833 161,425.5C 160.601,425.272 160.435,424.938 160.5,424.5C 167.297,410.909 174.63,397.576 182.5,384.5 Z"/></g>
<g><path style="opacity:1" fill="#c3a436" d="M 654.5,427.5 C 654.5,431.5 654.5,435.5 654.5,439.5C 671.5,439.5 688.5,439.5 705.5,439.5C 688.341,440.497 671.008,440.83 653.5,440.5C 653.182,435.968 653.515,431.634 654.5,427.5 Z"/></g>
<g><path style="opacity:1" fill="#cbaa36" d="M 608.5,439.5 C 608.833,439.5 609.167,439.5 609.5,439.5C 578.004,440.498 546.338,440.832 514.5,440.5C 514.5,641.5 514.5,842.5 514.5,1043.5C 546.5,1043.5 578.5,1043.5 610.5,1043.5C 610.5,1081.5 610.5,1119.5 610.5,1157.5C 623.167,1157.5 635.833,1157.5 648.5,1157.5C 648.185,1153.63 648.518,1149.96 649.5,1146.5C 649.5,1149.17 649.5,1151.83 649.5,1154.5C 649.5,1155.83 649.5,1157.17 649.5,1158.5C 635.833,1158.5 622.167,1158.5 608.5,1158.5C 608.5,1120.5 608.5,1082.5 608.5,1044.5C 576.833,1044.5 545.167,1044.5 513.5,1044.5C 513.5,842.833 513.5,641.167 513.5,439.5C 545.167,439.5 576.833,439.5 608.5,439.5 Z"/></g>
<g><path style="opacity:1" fill="#0f1d40" d="M 594.5,505.5 C 639.835,505.333 685.168,505.5 730.5,506C 746.212,507.618 761.545,510.952 776.5,516C 797.225,524.228 812.225,538.395 821.5,558.5C 822.057,563.165 823.39,567.498 825.5,571.5C 825.5,571.833 825.5,572.167 825.5,572.5C 825.808,576.36 826.475,580.026 827.5,583.5C 827.728,595.859 827.395,608.193 826.5,620.5C 818.571,655.76 797.238,678.927 762.5,690C 748.491,694.302 734.157,696.468 719.5,696.5C 677.833,696.5 636.167,696.5 594.5,696.5C 594.5,632.833 594.5,569.167 594.5,505.5 Z"/></g>
<g><path style="opacity:1" fill="#af9539" d="M 895.5,527.5 C 899.336,534.67 902.002,542.337 903.5,550.5C 900.453,543.029 897.787,535.362 895.5,527.5 Z"/></g>
<g><path style="opacity:1" fill="#ab9239" d="M 903.5,550.5 C 906.002,557.84 907.335,565.507 907.5,573.5C 905.404,566.082 904.071,558.416 903.5,550.5 Z"/></g>
<g><path style="opacity:1" fill="#685e3d" d="M 821.5,558.5 C 823.61,562.502 824.943,566.835 825.5,571.5C 823.39,567.498 822.057,563.165 821.5,558.5 Z"/></g>
<g><path style="opacity:1" fill="#6b613c" d="M 825.5,572.5 C 827.217,575.845 827.884,579.511 827.5,583.5C 826.475,580.026 825.808,576.36 825.5,572.5 Z"/></g>
<g><path style="opacity:1" fill="#4c4a3e" d="M 827.5,583.5 C 828.659,594.326 828.826,605.326 828,616.5C 827.79,618.058 827.29,619.391 826.5,620.5C 827.395,608.193 827.728,595.859 827.5,583.5 Z"/></g>
<g><path style="opacity:1" fill="#8e7c3b" d="M 906.5,629.5 C 905.87,633.048 904.87,636.381 903.5,639.5C 903.32,635.714 904.32,632.381 906.5,629.5 Z"/></g>
<g><path style="opacity:1" fill="#4e4c3c" d="M 594.5,505.5 C 594.5,569.167 594.5,632.833 594.5,696.5C 636.167,696.5 677.833,696.5 719.5,696.5C 677.67,697.499 635.67,697.832 593.5,697.5C 593.168,633.331 593.501,569.331 594.5,505.5 Z"/></g>
<g><path style="opacity:1" fill="#0f1d40" d="M 594.5,761.5 C 644.501,761.333 694.501,761.5 744.5,762C 773.044,762.869 797.877,772.702 819,791.5C 826.88,799.926 832.713,809.593 836.5,820.5C 837.256,824.767 838.589,828.767 840.5,832.5C 840.5,832.833 840.5,833.167 840.5,833.5C 840.41,836.152 841.076,838.485 842.5,840.5C 842.5,840.833 842.5,841.167 842.5,841.5C 842.808,845.36 843.475,849.026 844.5,852.5C 846.916,872.216 845.25,891.549 839.5,910.5C 837.755,912.033 836.755,914.033 836.5,916.5C 822.356,947.783 798.356,967.283 764.5,975C 753.307,977.588 741.974,978.755 730.5,978.5C 685.167,978.5 639.833,978.5 594.5,978.5C 594.5,906.167 594.5,833.833 594.5,761.5 Z"/></g>
<g><path style="opacity:1" fill="#5f573e" d="M 836.5,820.5 C 838.806,824.085 840.139,828.085 840.5,832.5C 838.589,828.767 837.256,824.767 836.5,820.5 Z"/></g>
<g><path style="opacity:1" fill="#ae933a" d="M 920.5,829.5 C 922.966,836.508 924.3,843.842 924.5,851.5C 922.245,844.449 920.911,837.115 920.5,829.5 Z"/></g>
<g><path style="opacity:1" fill="#5a543d" d="M 840.5,833.5 C 841.924,835.515 842.59,837.848 842.5,840.5C 841.076,838.485 840.41,836.152 840.5,833.5 Z"/></g>
<g><path style="opacity:1" fill="#84753b" d="M 842.5,841.5 C 844.217,844.845 844.884,848.511 844.5,852.5C 843.475,849.026 842.808,845.36 842.5,841.5 Z"/></g>
<g><path style="opacity:1" fill="#b99c39" d="M 924.5,882.5 C 924.666,888.509 924.499,894.509 924,900.5C 923.722,901.416 923.222,902.082 922.5,902.5C 922.638,895.637 923.304,888.97 924.5,882.5 Z"/></g>
<g><path style="opacity:1" fill="#665d3d" d="M 839.5,910.5 C 839.245,912.967 838.245,914.967 836.5,916.5C 836.755,914.033 837.755,912.033 839.5,910.5 Z"/></g>
<g><path style="opacity:1" fill="#4c4b3d" d="M 594.5,761.5 C 594.5,833.833 594.5,906.167 594.5,978.5C 639.833,978.5 685.167,978.5 730.5,978.5C 685.003,979.499 639.336,979.832 593.5,979.5C 593.167,906.665 593.501,833.998 594.5,761.5 Z"/></g>
<g><path style="opacity:1" fill="#7a6c3c" d="M 754.5,1051.5 C 753.822,1063.17 752.988,1074.84 752,1086.5C 751.79,1088.06 751.29,1089.39 750.5,1090.5C 751.126,1077.28 752.46,1064.28 754.5,1051.5 Z"/></g>
<g><path style="opacity:1" fill="#655c3d" d="M 658.5,1044.5 C 657.332,1065.18 655.832,1085.85 654,1106.5C 653.85,1112.08 653.017,1117.41 651.5,1122.5C 653.179,1096.29 655.512,1070.29 658.5,1044.5 Z"/></g>
<g><path style="opacity:1" fill="#c2a336" d="M 705.5,1044.5 C 706.498,1082 706.832,1119.66 706.5,1157.5C 719.167,1157.5 731.833,1157.5 744.5,1157.5C 744.205,1155.26 744.539,1153.26 745.5,1151.5C 745.5,1153.83 745.5,1156.17 745.5,1158.5C 732.167,1158.5 718.833,1158.5 705.5,1158.5C 705.5,1120.5 705.5,1082.5 705.5,1044.5 Z"/></g>
<g><path style="opacity:1" fill="#685e3d" d="M 750.5,1094.5 C 749.704,1116.05 748.037,1137.38 745.5,1158.5C 745.5,1156.17 745.5,1153.83 745.5,1151.5C 746.682,1132.31 748.348,1113.31 750.5,1094.5 Z"/></g>
<g><path style="opacity:1" fill="#534f3e" d="M 651.5,1126.5 C 651.655,1136.04 650.988,1145.37 649.5,1154.5C 649.5,1151.83 649.5,1149.17 649.5,1146.5C 649.735,1139.65 650.402,1132.98 651.5,1126.5 Z"/></g>
</svg>
